<svg xmlns="http://www.w3.org/2000/svg" viewBox="0 0 1400 400"><defs><style>.cls-1{fill:#fff;}</style></defs><title>Smartdome Logo</title><g id="Layer_1" data-name="Layer 1"><path class="cls-1" d="M204.4,160.76s-14.62-.14-14.62,12.74V280.92s-.05,9,11.15,9c0,0,10.61,0,10.9-8.87V209.07a25,25,0,0,1,5.57-16.17c3.62-4.29,9.45-8.2,18.66-8.2,0,0,26.44.38,26.44,17.75v78.37s.39,9.07,12.16,9.07c0,0,12.93.78,12.93-9.84V204.48s-.53-20,23.36-20c10.75,0,17.19,4.05,21,8.5a24,24,0,0,1,5.47,15.72v71.19s.87,10,12,10,11.87-9.41,11.87-9.41v-86s1.45-33.73-31-33.73Z"/><path class="cls-1" d="M455.06,160.74s-65.18,5.22-65.18,65.19c0,34.24,21.28,50.23,39.52,57.65a90.61,90.61,0,0,0,34.13,6.31h43.24c.5,0,9-.14,9-9V213.45S520.79,160.74,455.06,160.74Zm4.68,104.5a40.51,40.51,0,1,1,33-33A40.53,40.53,0,0,1,459.74,265.24Z"/><path class="cls-1" d="M1067.49,160.74s-14.62-.14-14.62,12.74V280.9s0,9,11.15,9c0,0,10.62,0,10.91-8.88V209.05a25,25,0,0,1,5.56-16.16c3.63-4.3,9.45-8.21,18.66-8.21,0,0,26.44.38,26.44,17.76V280.8s.4,9.08,12.17,9.08c0,0,12.93.77,12.93-9.85V204.46s-.53-20,23.35-20c10.75,0,17.19,4.05,21,8.5a24,24,0,0,1,5.48,15.72v71.19s.86,10,12,10,11.87-9.41,11.87-9.41v-86s1.46-33.73-31-33.73Z"/><path class="cls-1" d="M862.8,201.8V122.91s1.27-12.52-11.2-12.52S839.35,122,839.35,122v47.09c-8.75-5-20.77-8.31-37.28-8.31,0,0-65.19,5.22-65.19,65.19,0,34.24,21.28,50.21,39.51,57.65a90.42,90.42,0,0,0,34.16,6.31h43.23c.5,0,9-.14,9-9V213.45a47.39,47.39,0,0,0-.45-9.79A3.77,3.77,0,0,0,862.8,201.8Zm-23,30.39A40.5,40.5,0,1,1,793,185.38,40.38,40.38,0,0,1,839.76,232.19Z"/><path class="cls-1" d="M967.53,161.28a64.59,64.59,0,1,0,55.63,55.64A64.61,64.61,0,0,0,967.53,161.28ZM952.36,264.47a39.71,39.71,0,1,1,45.93-45.85A39.63,39.63,0,0,1,952.36,264.47Z"/><path class="cls-1" d="M93.32,289.62S155.57,289,155.57,241c0-26-11.9-39.32-22.8-46A50.06,50.06,0,0,0,110.43,188c-13.42-1.07-51.57-6.24-51.57-30.42,0-29.34,31.66-25.68,31.66-25.68s23.63-5,42.26,19.53a17.61,17.61,0,0,0,9,6.57c2.82.79,6,.83,8.41-1.58a14.33,14.33,0,0,0,3-4.55,16.64,16.64,0,0,0-1.78-15.43c-6-9.21-21.14-26.35-50.07-26.35-39.57,0-55.79,17.18-55.79,17.18s-29,31,0,60c0,0,12,13.61,39,15.64S125,218.38,125,218.38s19.5,18.43,0,37.93-48.74,6.46-48.74,6.46-18.14-2.6-26.63-23.25c0,0-10.38-7.78-17.47-2.51-10.86,8.05-6.08,17.66-6.08,17.66S46.7,289.62,93.32,289.62Z"/><path class="cls-1" d="M546.63,171.67V278s-.87,11.87,12,11.87,12.81-12,12.81-12v-69a19.23,19.23,0,0,1,3.68-11.5c6.08-8.19,20.12-20.88,45.18-12.29,0,0,9.91,2.32,13.46-3.54s-1.45-12.16-1.45-12.16a28.72,28.72,0,0,0-20.7-8.62c-13.25,0-28.66,3.19-40,17.45v-6.52s-.87-11-12.9-10.95S546.63,171.67,546.63,171.67Z"/><path class="cls-1" d="M722.19,277c0,13.34-12.61,12.89-12.61,12.89H683.81c-26.35,0-23.9-33.71-23.9-33.71V136.75l0-16s.32-9.52,13.84-9.52,13.79,10.2,13.79,10.2v45.36h17.64s10.75.18,10.75,11.3-10,12.34-10,12.34H687.49v54.65c0,18.74,10.88,18.06,10.88,18.06h13.52S722.19,263.67,722.19,277Z"/><path class="cls-1" d="M1282.71,234.86h79.65A12.6,12.6,0,0,0,1375,221.48c-1.41-21.36-11-60.74-62.37-60.74-70.49,0-59.29,74.89-59.29,74.89s3.09,54.26,60.61,54.26c51.62,0,52.52-22.87,52.21-27.54a4,4,0,0,0-.5-1.59c-1.14-2-5-7.12-13.48-6.75a22.31,22.31,0,0,0-11.79,4.26c-3.4,2.45-10.61,6.12-22.86,6.12-18.24,0-25.54-7.66-25.54-7.66A31,31,0,0,1,1279,239.58,3.8,3.8,0,0,1,1282.71,234.86Zm29.89-53.34c27.13,0,33.16,31.07,33.16,31.07h-66.32S1285.47,181.52,1312.6,181.52Z"/></g></svg>