<svg data-name="Layer 1" xmlns="http://www.w3.org/2000/svg" viewBox="0 0 300 300"><path d="M179.59 15.87c-6.18-1.29-12.51-1.87-18.77-2.8-.7-.1-1.38-.29-2.06-.44H141.6c-4.93.68-9.89 1.22-14.79 2.07a134 134 0 0 0-74 38.57C31.26 75 18.46 101.17 14.14 131.49c-.46 3.25-.8 6.53-1.19 9.79v17.16c.69 5 1.19 10.08 2.09 15.07 6.51 35.89 24.5 64.83 53.62 86.62 24.77 18.53 52.91 27.8 83.82 26.82 50.4-1.59 89.05-24.39 115.61-67.14 13.81-22.24 19.66-46.87 19.31-73-.84-62.36-46.75-118.22-107.81-130.94Zm52.81 97a70.76 70.76 0 0 1-3.74 4.19 20.82 20.82 0 0 1-4.12 3.81c-4.1 2.36-4.69 5.79-4.78 10.23-.76 36.9-24.76 76.49-66.83 88.05-25.88 7.11-50.75 4.36-74.16-9.24-.53-.31-1-.66-1.56-1-.1-.08-.11-.28-.27-.74 17.27 1.31 32.89-2.91 47.23-13.64-15-1.57-25.06-8.88-30.63-23.11h13.69c0-.22.1-.44.16-.66C91.62 165.69 83 155.1 82 138.67l13.58 3.77.43-.9c-8.17-6.28-12.89-14.46-13.64-24.72a32.47 32.47 0 0 1 4.34-18.61c17.81 20.86 40.19 32.44 67.66 34.4a15.8 15.8 0 0 0 0-2.19 33 33 0 0 1 55-29.45 3.68 3.68 0 0 0 4 1c3.05-1 6.16-1.81 9.15-3s5.85-2.63 9.15-4.14c-2.43 7.5-7.05 13-13.24 17.28l.29.74 17.15-4.61c-1.2 1.64-2.28 3.16-3.47 4.61Z" style="fill:#fff"/></svg>