<svg id="Layer_1" data-name="Layer 1" xmlns="http://www.w3.org/2000/svg" viewBox="0 0 300 300"><defs><style>.cls-1{fill:#fff}</style></defs><path class="cls-1" d="M287.32 146c-.05-1.25-.06-2.5-.08-3.75a89 89 0 0 0-.75-9.22 130.92 130.92 0 0 0-2.27-13.2A134.9 134.9 0 0 0 261.08 69a136.65 136.65 0 0 0-68.27-49.62 131.46 131.46 0 0 0-20.81-5c-4.41-.71-8.85-1.18-13.31-1.48-1.69-.12-3.4-.1-5.09-.17-.44 0-.88-.11-1.32-.17h-4c-.44.06-.88.15-1.32.17-2.5.12-5 .17-7.5.36-2.8.22-5.61.5-8.39.88a126.5 126.5 0 0 0-13.94 2.68 135.53 135.53 0 0 0-49.8 23.84 136.8 136.8 0 0 0-46.64 63.63A136.78 136.78 0 0 0 13 143.36a5.87 5.87 0 0 1-.48 2.48v8.32a4.55 4.55 0 0 1 .47 2.2c.1 1.52.17 3 .28 4.55a133.37 133.37 0 0 0 5.56 29.3 137.75 137.75 0 0 0 80.85 87.5 136.1 136.1 0 0 0 41.8 9.31c1 .06 2.06.15 3.08.25a9 9 0 0 1 1 .23h9.13a7.26 7.26 0 0 1 1-.22c1.12-.11 2.23-.2 3.35-.27 3.48-.19 6.94-.57 10.39-1.05A136.59 136.59 0 0 0 235 258a136.79 136.79 0 0 0 42.41-56.2 133.57 133.57 0 0 0 8.28-29.34c.67-4.06 1.17-8.14 1.46-12.24.14-1.87.09-3.76.15-5.63 0-.85.13-1.69.2-2.53v-4c-.06-.73-.16-1.4-.18-2.06Zm-51.39 25.37c-.05 5.32-.25 10.64-.54 15.95A62 62 0 0 1 232 205a43.77 43.77 0 0 1-18 22.51 46.62 46.62 0 0 1-13.8 5.75 60.69 60.69 0 0 1-10 1.67c-5.84.5-11.7.72-17.55.74q-22.41.08-44.8 0c-5.19 0-10.38-.25-15.55-.56a61.66 61.66 0 0 1-18.55-3.92 44.06 44.06 0 0 1-24.85-24.77 58 58 0 0 1-3.31-12.82c-.45-3.19-.66-6.39-.82-9.61-.4-8.45-.46-16.9-.46-25.35v-22.26q0-8.12.26-16.23.14-4.89.53-9.78a59.51 59.51 0 0 1 4.1-17.68A44 44 0 0 1 94 68.58a59.3 59.3 0 0 1 13-3.27c3.19-.42 6.4-.63 9.61-.77C127.78 64 139 64.1 150.23 64c8.67.09 17.35.13 26 .28 4.33.08 8.67.26 13 .57a59.44 59.44 0 0 1 18 4 44 44 0 0 1 24.2 24.51A57.87 57.87 0 0 1 234.7 106c.41 2.88.65 5.77.8 8.67.44 8.22.51 16.44.5 24.67 0 10.66 0 21.35-.07 32.03Z"/><path class="cls-1" d="M220.57 150c0-7.38-.06-14.76-.13-22.13-.05-6-.2-11.9-.81-17.82a42.22 42.22 0 0 0-1.94-9.16 28.56 28.56 0 0 0-18.15-18.39 47.39 47.39 0 0 0-13-2.37c-5.32-.27-10.64-.48-15.95-.53-9.57-.09-19.14-.06-28.71-.06-7.15 0-14.31 0-21.46.28-3.75.15-7.5.25-11.23.76a42.87 42.87 0 0 0-8.47 2 28.15 28.15 0 0 0-18 18.07 44.62 44.62 0 0 0-2.31 12.21c-.29 5.13-.52 10.27-.56 15.41-.08 13.59-.06 27.18 0 40.78 0 4.47.17 8.94.33 13.4a81.35 81.35 0 0 0 .72 9 41.21 41.21 0 0 0 2.4 9.32 27.91 27.91 0 0 0 15.87 16 41.36 41.36 0 0 0 12.77 2.85q6 .45 12 .57c16.14.3 32.28.28 48.43.07 6-.08 12-.18 17.94-.85a40.44 40.44 0 0 0 10.4-2.47 28 28 0 0 0 15.58-14.53 34.18 34.18 0 0 0 2.23-6.45 59.51 59.51 0 0 0 1.57-11.96c.18-4.56.32-9.12.36-13.68.06-6.75 0-13.5 0-20.25Zm-70.35 44a44.09 44.09 0 1 1 44-44.06 44.15 44.15 0 0 1-44 44.11ZM196 114.42a10.3 10.3 0 1 1 10.3-10.3 10.29 10.29 0 0 1-10.3 10.3Z"/><path class="cls-1" d="M178.78 150.12a28.62 28.62 0 1 1-28.51-28.79 28.57 28.57 0 0 1 28.51 28.79Z"/></svg>