<svg id="Layer_1" data-name="Layer 1" xmlns="http://www.w3.org/2000/svg" viewBox="0 0 2072.75 1940"><defs><style>.cls-1{fill:#fff;}.cls-2{fill:#252525;}.cls-3{font-size:167.45px;fill:#184d47;font-family:Lato-Black, Lato;font-weight:800;}.cls-4{fill:#cf7500;}</style></defs><title>Logo</title><circle class="cls-1" cx="1037.17" cy="983.13" r="933.54"/><path class="cls-2" d="M1446.53,675.61c4.83,5.61,3.52,14.13-2.45,18.51-.42.3-.82.63-1.22,1L1195.82,914l-93.56,82.71h-.13l-5.35,4.73-28.57,25.25L760.22,1299a14.44,14.44,0,0,0-2.12,2.32c-3.6,4.9-10.54,6.22-15.14,2.26a15.15,15.15,0,0,1-1.45-1.44l-12-13.62-.11-.13a11.36,11.36,0,0,1,2.19-16.6,14.79,14.79,0,0,0,1.25-1l336.47-297.49L1108.17,939l307.3-272.12a16.91,16.91,0,0,0,1.68-1.71c4-4.72,10.75-6.41,16.12-3.29a17,17,0,0,1,4.22,3.47l8.92,10.11Z"/><text class="cls-3" transform="translate(893.31 1641.25) rotate(-164.21)">S</text><text class="cls-3" transform="translate(808.7 1616.14) rotate(-159.3)"> </text><text class="cls-3" transform="matrix(-0.92, -0.4, 0.4, -0.92, 779.68, 1605.21)"> </text><text class="cls-3" transform="translate(751.68 1595.95) rotate(-150.53)">U</text><text class="cls-3" transform="matrix(-0.81, -0.58, 0.58, -0.81, 649.72, 1535.77)"> </text><text class="cls-3" transform="translate(624.51 1517.71) rotate(-141.73)"> </text><text class="cls-3" transform="matrix(-0.71, -0.7, 0.7, -0.71, 599.81, 1501.59)">A</text><text class="cls-3" transform="translate(515.63 1415.57) rotate(-129.29)"> </text><text class="cls-3" transform="translate(496.05 1391.68) rotate(-126.77)"> </text><text class="cls-3" transform="matrix(-0.51, -0.86, 0.86, -0.51, 476.31, 1369.66)">V</text><text class="cls-3" transform="matrix(-0.41, -0.91, 0.91, -0.41, 417.16, 1265.01)"> </text><text class="cls-3" transform="translate(404.36 1236.77) rotate(-111.72)"> </text><text class="cls-3" transform="translate(391.37 1210.15) rotate(-105.85)">Y</text><text class="cls-3" transform="matrix(-0.17, -0.98, 0.98, -0.17, 363.07, 1103.46)"> </text><text class="cls-3" transform="translate(357.66 1072.95) rotate(-97.41)"> </text><text class="cls-3" transform="translate(353.63 1042.18) rotate(-94.83)"> </text><text class="cls-3" transform="translate(350.99 1011.29) rotate(-92.25)"> </text><text class="cls-3" transform="translate(349.74 980.27) rotate(-89.67)"> </text><text class="cls-3" transform="matrix(0.05, -1, 1, 0.05, 349.89, 949.26)"> </text><text class="cls-3" transform="translate(351.43 918.28) rotate(-84.53)"> </text><text class="cls-3" transform="matrix(0.14, -0.99, 0.99, 0.14, 354.36, 887.41)"> </text><text class="cls-3" transform="translate(358.66 856.68) rotate(-79.39)"> </text><text class="cls-3" transform="matrix(0.27, -0.96, 0.96, 0.27, 362.48, 827.12)">T</text><text class="cls-3" transform="translate(390.6 733.62) rotate(-68.82)"> </text><text class="cls-3" transform="matrix(0.4, -0.92, 0.92, 0.4, 401.77, 704.71)"> </text><text class="cls-3" transform="matrix(0.48, -0.88, 0.88, 0.48, 412.43, 676.8)">E</text><text class="cls-3" transform="matrix(0.56, -0.83, 0.83, 0.56, 457.97, 596.84)"> </text><text class="cls-3" transform="matrix(0.6, -0.8, 0.8, 0.6, 475.27, 571.12)"> </text><text class="cls-3" transform="matrix(0.67, -0.74, 0.74, 0.67, 491.25, 546.11)">C</text><text class="cls-3" transform="matrix(0.74, -0.67, 0.67, 0.74, 564.67, 468.11)"> </text><text class="cls-3" transform="matrix(0.77, -0.64, 0.64, 0.77, 587.7, 447.32)"> </text><text class="cls-3" transform="matrix(0.84, -0.55, 0.55, 0.84, 608.62, 426.54)">H</text><text class="cls-3" transform="translate(713.16 361.06) rotate(-26.83)"> </text><text class="cls-3" transform="translate(740.8 347.05) rotate(-24.23)"> </text><text class="cls-3" transform="translate(766.39 332.46) rotate(-17.83)">N</text><text class="cls-3" transform="translate(884.52 297.05) rotate(-11.44)"> </text><text class="cls-3" transform="matrix(0.99, -0.15, 0.15, 0.99, 914.92, 290.87)"> </text><text class="cls-3" transform="matrix(1, -0.04, 0.04, 1, 943.3, 283.29)">O</text><text class="cls-3" transform="matrix(1, 0.08, -0.08, 1, 1073.86, 281.02)"> </text><text class="cls-3" transform="translate(1104.8 283.38) rotate(6.99)"> </text><text class="cls-3" transform="matrix(0.98, 0.2, -0.2, 0.98, 1134.7, 285.8)">L</text><text class="cls-3" transform="translate(1217.24 303.99) rotate(16.48)"> </text><text class="cls-3" transform="translate(1246.98 312.76) rotate(19.06)"> </text><text class="cls-3" transform="matrix(0.9, 0.43, -0.43, 0.9, 1275.62, 319.32)">O</text><text class="cls-3" transform="translate(1392 378.44) rotate(32.4)"> </text><text class="cls-3" transform="matrix(0.82, 0.57, -0.57, 0.82, 1418.19, 395.03)"> </text><text class="cls-3" transform="translate(1443.72 409.9) rotate(41.11)">G</text><text class="cls-3" transform="matrix(0.68, 0.73, -0.73, 0.68, 1529.8, 487.86)"> </text><text class="cls-3" transform="matrix(0.65, 0.76, -0.76, 0.65, 1550.92, 510.6)"> </text><text class="cls-3" transform="matrix(0.6, 0.8, -0.8, 0.6, 1570.98, 533.71)">I</text><text class="cls-3" transform="matrix(0.55, 0.83, -0.83, 0.55, 1601.92, 575.37)"> </text><text class="cls-3" transform="matrix(0.51, 0.86, -0.86, 0.51, 1619.06, 601.21)"> </text><text class="cls-3" transform="translate(1635.69 626.05) rotate(64.17)">E</text><text class="cls-3" transform="matrix(0.35, 0.94, -0.94, 0.35, 1674.62, 709.4)"> </text><text class="cls-3" transform="translate(1685.62 738.39) rotate(71.89)"> </text><text class="cls-3" transform="translate(1696.22 766.4) rotate(76.84)">S</text><path class="cls-4" d="M1083.66,798.66a120.71,120.71,0,0,0-25.64-38.2,139.37,139.37,0,0,0-36.29-25.81A373.63,373.63,0,0,0,980.05,717q-21.28-7.5-41.69-13.61A270.86,270.86,0,0,1,902.08,690q-15.87-7.32-25.64-17.44t-9.77-25.47q0-24.06,16.22-38.2t49.36-14.12q19.2,0,34.19,5a175.1,175.1,0,0,1,26.69,11.34q11.68,6.29,20.93,11.34t17.27,5.06q9.08,0,14.82-4.19t11-12.56L1086.45,556a171.27,171.27,0,0,0-30.88-22.5,230.62,230.62,0,0,0-37.15-17.09,240.78,240.78,0,0,0-42-10.82A278.74,278.74,0,0,0,930.86,502q-41.86,0-74.31,12.73t-54.77,34a144.16,144.16,0,0,0-33.84,48.49A142.08,142.08,0,0,0,756.43,653q0,35.6,9.77,59.83t25.64,40.47A130.9,130.9,0,0,0,828,779.47a304,304,0,0,0,41.51,16.75Q890.74,803,911,808.6a236.48,236.48,0,0,1,36.11,12.91Q963,828.83,972.72,840t9.77,29q0,30.7-17.79,44.83t-49.89,14.13q-23.71,0-41.16-6.63a193.57,193.57,0,0,1-30.88-14.65q-13.42-8-24.07-14.65t-21.1-6.63a30.61,30.61,0,0,0-15,3.84,28.48,28.48,0,0,0-10.82,10.11L736.9,954.42a183.74,183.74,0,0,0,35.23,27.21,274.4,274.4,0,0,0,43.26,21.11A287.3,287.3,0,0,0,863,1016.52a247.28,247.28,0,0,0,48.31,4.88,250.21,250.21,0,0,0,34.2-2.24l129.19-114.23h.12l14.52-12.83a185.24,185.24,0,0,0,4.07-39.19Q1093.42,821.19,1083.66,798.66Z"/><path class="cls-4" d="M1200.16,973.52l-1.63,1.44-38.88,34.31-60,53V1067h143V1481.8h117.91V1067h143V973.52Z"/></svg>