<svg id="Layer_1" data-name="Layer 1" xmlns="http://www.w3.org/2000/svg" viewBox="0 0 500 500"><title>Artboard 1</title><path d="M272.6,283.9a9.57,9.57,0,0,1-3.15-7.58c.12-29.32.07-58.64.07-88h0c0-29.16.33-58.34-.08-87.5-.6-43.4-42.31-76.1-84.68-66.81-33.25,7.29-55.9,35.32-55.93,69.5q-.11,86.58,0,173.15a8.87,8.87,0,0,1-3.08,7.15C105.07,303.34,93.62,327.43,92,355.71c-4.11,69.41,57.35,124.42,125.75,112,42.54-7.76,71.39-33.19,83.92-74.47C314.28,351.49,303.48,314.67,272.6,283.9ZM281.19,384c-9.18,34.39-32.72,55.21-67.67,62-46.66,9-93.17-25.41-98.72-72.54-3.64-31,6.6-56.72,30.24-77a16,16,0,0,0,6-13.21q-.16-90,0-180a48.12,48.12,0,1,1,96.23-.72c.17,30.08,0,60.17,0,90.25s.1,60.17-.08,90.25c0,5.73,1.86,9.8,6.2,13.61C280.19,320.11,290.36,349.66,281.19,384Z"/><path d="M427.92,171.69c-9.09,8.22-19.89,12.07-32,12.47-12.86-.28-24.1-4.61-33.48-13.5-6.93-6.58-15-10-24.45-7.47a38.45,38.45,0,0,0-12.48,6.52c-5.92,4.42-12.14,4.73-16.54-.08s-3.78-11.53,1.81-16.72a47.75,47.75,0,0,1,64.77-.16c7.4,6.73,15.48,11,25.54,8.36a36.5,36.5,0,0,0,12.13-6.22c6.27-4.72,12.39-5.13,16.89-.22S433.86,166.33,427.92,171.69Z"/><path d="M432.66,234.78c-.18,3.36-1.49,7.4-3.74,9.8-8.2,8.78-21.13,13.71-32,13.67-14.55-.33-25.73-5.31-35.46-14.27-11-10.09-24.72-10.06-35.92-.42-.35.31-.68.64-1,.92-5.15,4.13-11.66,3.71-15.75-1-3.92-4.52-3.56-10.9.88-15.45,17-17.47,46.45-18.35,65.17-2,3,2.61,6,5.5,9.55,7.18,10.71,5.1,20.66,3.26,29.49-4.63,3.48-3.1,7.36-4.42,11.92-2.68C429.87,227.45,432.88,230.5,432.66,234.78Z"/><path d="M214.39,316.67c-3.52-1.17-4.21-2.78-4.21-6.18q.16-101.82.08-203.64c0-1.54.07-3.09,0-4.63a11.08,11.08,0,0,0-22.11-.17c-.14,1.54-.06,3.09-.06,4.63V315.12c-25.2,7.42-35.52,26.39-36.88,43.24-2.06,25.52,15.6,47.21,41.68,51.47,23.43,3.82,46.86-12.17,53-36.17A47.69,47.69,0,0,0,214.39,316.67Zm-15.58,71.39a25.92,25.92,0,1,1,26.25-25.58A26,26,0,0,1,198.81,388.06Z"/></svg>