<svg data-name="Layer 1" xmlns="http://www.w3.org/2000/svg" viewBox="0 0 300 300"><path d="M284.51 176.47c-5.9 33.78-23.2 61.31-50.06 82.66a134.51 134.51 0 0 1-63.1 27.66v-95.91h31.8c2-13.25 4-26.29 6.08-39.61h-37.8c0-10.07-.4-19.89.13-29.66.4-7.49 4.41-13.26 11.76-15.75a39.71 39.71 0 0 1 10.77-1.69c5.49-.28 11-.08 16.63-.08V70.27c-13.39-1.8-26.69-3.74-40.11-2-13.18 1.74-24.43 7.23-32.45 18.22-7 9.6-9.58 20.64-9.81 32.28-.2 9.83 0 19.66-.06 29.48v3.13H93.6V191h34.57v95.66c-.39 0-.66 0-.92-.05-27.9-4.77-52.17-16.85-72.54-36.48a134.38 134.38 0 0 1-40.14-75.52c-.88-5.08-1.39-10.21-2.07-15.32v-16.6c.4-3.27.72-6.54 1.2-9.8 5.35-36.46 22.23-66.48 51.15-89.27 31.47-24.79 67.43-33.87 106.94-27.77a129.81 129.81 0 0 1 73.38 37c34.39 34.32 47.67 75.84 39.34 123.62Z" style="fill:#fff"/></svg>