<svg id="Layer_1" data-name="Layer 1" xmlns="http://www.w3.org/2000/svg" viewBox="0 0 500 500"><title>Artboard 1</title><path d="M386.67,163.32C371.67,89,302.23,41.18,227.53,53.56c-76.2,12.64-127.5,87.34-112.12,163,5.8,28.53,16.93,55,30.37,80.59,23.75,45.25,53.35,86.58,85.5,126.16,6.29,7.75,12.83,15.3,19.62,23.38a895.18,895.18,0,0,0,68.66-88.91c24.1-35.75,45.78-72.8,59.69-113.9C388.14,217.61,392.24,190.88,386.67,163.32Zm-136,75.73A49.27,49.27,0,1,1,300.23,190,49.1,49.1,0,0,1,250.62,239.05Z"/></svg>