<svg id="Layer_1" data-name="Layer 1" xmlns="http://www.w3.org/2000/svg" viewBox="0 0 500 500"><title>Artboard 1</title><path d="M488,173.11V388.85c-.2.23-.51.42-.58.68-6.67,25.5-21.94,37.28-48.34,37.28H61.33c-28.73,0-47.4-18.74-47.4-47.56q0-100.46,0-200.92v-5.85c2.42,1.82,4.1,3.05,5.75,4.33q92.61,72,185.21,144c29.34,22.83,63,22.86,92.26.06q88-68.51,176-137C478,180.18,483.06,176.71,488,173.11Z"/><path d="M488,109.22v12c-3.39,14.72-13.35,24.2-24.87,33.09Q370.49,225.89,278.29,298c-17.55,13.65-37.14,13.57-54.76-.15L31.81,148.72c-16-12.44-21.58-29-15.67-46.91A44.3,44.3,0,0,1,58.2,71.31c52.76-.13,105.52,0,158.29,0H439.11c26.41,0,41.64,11.76,48.31,37.28C487.49,108.8,487.8,109,488,109.22Z"/></svg>