<svg id="Layer_1" data-name="Layer 1" xmlns="http://www.w3.org/2000/svg" viewBox="0 0 500 500"><title>Artboard 1</title><path d="M418.42,381.33c-10.05,11.7-20.44,23.14-30,35.23-6.43,8.14-14,12.2-24.32,11.26a23.23,23.23,0,0,0-2.77,0c-130-3.94-244.41-84.35-278.77-219.69A291.91,291.91,0,0,1,73.2,133a22.12,22.12,0,0,1,8.25-17.77c13.34-11.23,26.47-22.7,39.75-34,9.31-7.92,20.57-7.31,28.86,1.76Q186.14,122.5,222,162.16c8,8.85,7.57,20-1.07,28.53q-22.42,22.09-45.11,43.92c-2.18,2.09-2.72,3.9-1.92,6.85,8.46,31,27.82,53.85,53.93,71.5a102.72,102.72,0,0,0,32,14.19,5.73,5.73,0,0,0,6.45-1.8c14.12-14.68,28.37-29.25,42.58-43.84,10.43-10.7,20.77-11,31.91-.87q37.86,34.39,75.71,68.81C427.51,359.5,428.13,370,418.42,381.33Z"/><path d="M448,230H409.23c-.75-37.84-12.06-71.61-39.21-98.79S309.1,92.6,270.76,91.84V53.12C368.67,49.76,450.93,130.73,448,230Z"/><path d="M369.31,230.1H329.87c1.21-40-18.24-60.09-58.81-58.88V132.11C329.22,129.54,370.4,164.37,369.31,230.1Z"/></svg>