<svg id="Layer_1" data-name="Layer 1" xmlns="http://www.w3.org/2000/svg" viewBox="0 0 1000 1000"><defs><style>.cls-1{fill:#fff;}</style></defs><title>IoTIndustrial2</title><path class="cls-1" d="M536.77,327.33c70,.94,138.13,26.29,196.66,77,10.2,8.83,11.58,21.58,3.48,31-7.82,9-20.86,9.62-30.78,1-33.38-29.11-71.31-49.71-114.57-59.35q-130.29-29-234.24,55.34c-2.33,1.89-4.53,3.94-6.89,5.79-9.06,7.1-21.43,6.12-28.86-2.23a20.53,20.53,0,0,1,1.37-29.23,292.16,292.16,0,0,1,65.16-45.05C432.48,338.78,479.65,327.51,536.77,327.33Z"/><path class="cls-1" d="M544.28,413.78c42.6.51,92.82,19.93,135.55,58.56,9.86,8.92,11.1,21.51,3.13,30.64s-21.1,9.71-31.09.65C624.6,478.9,593,463,556.51,457.87c-55.89-7.9-105.11,7.07-147.84,43.95-4.11,3.55-9.34,6.76-14.53,7.88-9.21,2-17.78-3.36-21.64-11.64s-1.94-17.9,5.22-24.63A216.86,216.86,0,0,1,430.06,437C461.31,421.55,494.38,413.65,544.28,413.78Z"/><path class="cls-1" d="M529.66,498.89c33.57,1.54,63.12,12.37,88.59,34.09,9.94,8.47,11.38,21.26,3.5,30.59-7.71,9.13-20.49,10-30.33,1.67-17.86-15.13-38.34-23.19-61.77-23.27-23.25-.07-43.6,7.79-61.6,22.47a30,30,0,0,1-13.17,6.31c-9.23,1.58-17.7-3.85-21.37-12.22A20.71,20.71,0,0,1,439,534.39c16.55-14.84,35.62-25.21,57.27-30.24C507.18,501.61,518.5,500.59,529.66,498.89Z"/><path class="cls-1" d="M561.24,623.48a32,32,0,0,1-64,0,32.22,32.22,0,0,1,32-32.15A31.89,31.89,0,0,1,561.24,623.48Z"/></svg>