<svg id="Layer_1" data-name="Layer 1" xmlns="http://www.w3.org/2000/svg" viewBox="0 0 1000 1000"><defs><style>.cls-1{fill:#fff;}</style></defs><title>IoTIndustrial3</title><path class="cls-1" d="M325.68,459.52c6.26,0,12.08-.07,17.9,0,18.32.23,30.74,12.62,30.83,30.87.09,17.3,0,34.6,0,52.35H358.09v34.53h-85.3V543.14H256.58c-.13-2.07-.31-3.65-.31-5.24,0-15.67-.06-31.34,0-47,.08-19.15,12.11-31.23,31.18-31.38,5.82,0,11.64,0,17.64,0,1.11-5.48,1.88-10.72,3.26-15.8,10-37,43.71-60.35,83-57.76,35.49,2.33,66.35,32,70.92,68.38a114.28,114.28,0,0,1,.59,14c0,53.84-.1,107.67.07,161.51.09,31.69,13.89,55.94,41.64,71.29,50.31,27.84,114.67-8.29,115.66-65.67,1.09-62.81.28-125.67.28-188.5a18.93,18.93,0,0,0-.35-2.18H615q-25.51,0-51,0c-19.62,0-32-12.22-32.1-31.69-.08-30.5,0-61,0-91.5,0-1.46.17-2.92.29-4.81h29.27V257.94H699.33v58.58h29.54v5.76q0,45.24,0,90.5c0,19.88-12.23,32-32.21,32q-27.25.06-54.51.08a13,13,0,0,0-1.79.41v6q0,89.25,0,178.51c0,31.29-11.45,57.76-35.76,77.62C575.38,731.25,542.12,737,507,723.65c-35.49-13.53-56.33-40.19-62.53-77.83a108.83,108.83,0,0,1-1-17.42c-.07-54.17,0-108.34-.06-162.51-.05-29.41-18.87-53-47-59.21-33.1-7.31-66.3,16-70.69,49.66C325.59,457.15,325.68,458,325.68,459.52Zm324.68-143V292.29h19.48v24.18h9.43V277.6H581.55v38.79h9.58v-24H611v24.16Zm-312.3,226.7H292.74v14.39h45.32Z"/></svg>