<svg id="Layer_1" data-name="Layer 1" xmlns="http://www.w3.org/2000/svg" viewBox="0 0 1000 1000"><defs><style>.cls-1{fill:#184d47;}</style></defs><title>IoTIndustrial1</title><path class="cls-1" d="M531.29,750.22h-66c.44-8.91.82-17.52,1.3-26.12q4.29-76.86,8.59-153.72,3.75-67.87,7.39-135.76c.53-9.81,1.08-19.63,1.79-29.43.21-2.89-.32-4.73-3-6.54a30.35,30.35,0,0,1-11.42-37,30.75,30.75,0,0,1,59.25,9.47c.72,11.26-3.61,20.6-12.95,27.1-2.82,2-3.81,3.84-3.62,7.23Q519,518.23,525.26,631q3,54.66,6,109.3C531.44,743.48,531.29,746.64,531.29,750.22Z"/><path class="cls-1" d="M377.71,251.07l24.76,24.71c-26,26.33-40.21,58.53-40.52,96.2s13.2,70.23,38.9,97L376.22,493.6C310.48,429.94,308.76,317.51,377.71,251.07Z"/><path class="cls-1" d="M594.54,275.78l24.52-24.54c64.25,59.63,72,172.65,1.58,242.59L596.15,469.3C648.91,416.21,647.76,328.64,594.54,275.78Z"/><path class="cls-1" d="M570.46,444,545.9,419.45c12-12.88,18.83-28.5,18.65-46.88s-7.17-33.95-19.5-46.48l24.51-24.8C610.14,338.82,609.42,407.29,570.46,444Z"/><path class="cls-1" d="M426.31,443.93c-39.62-37.55-38.67-106.48,1.51-142.9l24.57,24.58c-12.55,12.74-19.73,28.2-20,46.59s6.36,34.13,18.47,47.11Z"/></svg>