<svg id="Layer_1" data-name="Layer 1" xmlns="http://www.w3.org/2000/svg" viewBox="0 0 300 300"><defs><style>.cls-1{fill:#fff}</style></defs><path class="cls-1" d="M284.92 126.85c-10.46-52.23-40.8-87.64-90.57-106.37a119.87 119.87 0 0 0-33.68-7 21.26 21.26 0 0 1-2.33-.45h-17.15c-4.94.68-9.9 1.22-14.8 2.07-29.45 5.06-54.55 18.48-75.3 39.9s-33.5 47.07-37.24 76.68c-5.4 42.68 6.45 80.29 35.63 112 22 23.92 49.47 38.23 81.7 42.45 39.86 5.22 75.66-5 106.6-30.79 25-20.84 40.57-47.58 46.8-79.61.92-4.72 1.29-9.55 1.94-14.32.11-.87.32-1.74.48-2.61v-17.15c-.68-4.94-1.1-9.92-2.08-14.8ZM170.83 232c-19.73 4.13-38.71 1.42-56.73-7.62a6.55 6.55 0 0 0-5-.47c-13.61 3.64-27.24 7.19-40.87 10.75-.67.18-1.37.26-2.5.46 3.87-14.17 7.59-27.94 11.44-41.67a7.44 7.44 0 0 0-.64-6c-26.23-49.53.69-110.59 55-124.89 49.76-13.1 100.66 20.55 107.91 71.35C246 180 216.38 222.45 170.83 232Z"/><path class="cls-1" d="M224.9 136.46c-5.49-41-46.22-69.44-86.5-60.41-49.67 11.12-72.87 66.29-46 109.53a5.59 5.59 0 0 1 .76 5c-2.26 7.85-4.33 15.76-6.59 24.09 8.57-2.25 16.6-4.3 24.59-6.51a6.16 6.16 0 0 1 5.24.76 70.15 70.15 0 0 0 48.68 9.23c39.15-6.64 65.11-42.26 59.82-81.69Zm-44.53 51.8a28.49 28.49 0 0 1-3.47.31c0 .12 0 .24-.07.37-3.05-.55-6.17-.87-9.16-1.67-18.08-4.88-32.52-15.29-43.91-29.9A106 106 0 0 1 112 139.25c-5.41-11-3.35-21.66 4.69-29.86 2.48-2.53 9.16-3.93 12.25-2.35a5.47 5.47 0 0 1 2.21 2.55c2.53 5.8 5 11.62 7.3 17.52a4.9 4.9 0 0 1-.35 3.77 48.87 48.87 0 0 1-5.08 6.84c-1.45 1.64-1.79 3.05-.62 5a59.82 59.82 0 0 0 29.71 25.53 3.66 3.66 0 0 0 4.72-1.25c2.09-2.66 4.3-5.24 6.36-7.94 1.2-1.58 2.58-2.19 4.4-1.34 6.13 2.88 12.28 5.74 18.31 8.81a4 4 0 0 1 1.51 3.06c.21 10.56-6.41 16.33-17.04 18.67Z"/></svg>