<svg data-name="Layer 1" xmlns="http://www.w3.org/2000/svg" viewBox="0 0 300 300"><path d="M286.82 145.64c0-1.16-.07-2.33-.07-3.49a85.19 85.19 0 0 0-.9-10.82 132.5 132.5 0 0 0-3.06-15.91 135.25 135.25 0 0 0-26.7-52.82 136.53 136.53 0 0 0-63.51-43.73 132.17 132.17 0 0 0-20.68-5.05c-4.19-.69-8.41-1.15-12.64-1.48-1.11-.09-2.23-.07-3.35-.14-.48 0-1-.13-1.45-.2h-9.66a11.5 11.5 0 0 1-1.31.2A135 135 0 0 0 72.12 36a137.35 137.35 0 0 0-54.65 76 133.79 133.79 0 0 0-3.92 18.88c-.52 4-.92 7.91-1.07 11.88a6.83 6.83 0 0 1-.48 2.61v8.32a4.28 4.28 0 0 1 .47 2.19c.1 1.52.17 3 .29 4.55a134.47 134.47 0 0 0 23.05 65.76 136.38 136.38 0 0 0 63.48 51 132.59 132.59 0 0 0 26.37 7.45c4.67.83 9.37 1.4 14.09 1.76 2.27.18 4.55.26 6.83.4.48 0 1 .13 1.44.2h3.49a11.62 11.62 0 0 1 1.18-.2c3.21-.21 6.43-.35 9.63-.64q4.47-.41 8.91-1.1A132 132 0 0 0 191 280.4a137.88 137.88 0 0 0 92.14-98.52 132 132 0 0 0 2.86-15.55 100.85 100.85 0 0 0 .81-12c0-.93.13-1.86.2-2.79v-4.29c-.07-.56-.17-1.08-.19-1.61Zm-180.1 80.79a8.2 8.2 0 0 1-.81.16H72.78a6 6 0 0 1-1.44 0c-.16-.14-.2-.16-.22-.2a.24.24 0 0 1 0-.12v-106.5c0-.09.06-.16.14-.37h35.37c0 .28.1.53.12.78s0 .63 0 .94Zm1-133.19a17.61 17.61 0 0 1-11.21 10.24 22.3 22.3 0 0 1-7.63 1.14 20.47 20.47 0 0 1-9.28-1.83 17.46 17.46 0 0 1-10.51-14.51 18.06 18.06 0 0 1 1.19-9.2 17.48 17.48 0 0 1 10.92-10.2 23.7 23.7 0 0 1 10.44-1.17 21.21 21.21 0 0 1 6.6 1.66 17.45 17.45 0 0 1 10.32 12.56 18.12 18.12 0 0 1-.86 11.31Zm127.58 131.6v1.65c-1.63.17-34.42.15-35.5 0a3.87 3.87 0 0 1-.12-.61V170.34a54.89 54.89 0 0 0-.35-7.36 28.67 28.67 0 0 0-2.12-8.14 21.47 21.47 0 0 0-1.43-2.73 14.49 14.49 0 0 0-9-6.53 20.25 20.25 0 0 0-10.73.16 18.43 18.43 0 0 0-9.44 6.53 23.5 23.5 0 0 0-3.22 5.55 15.93 15.93 0 0 0-1.1 5.23c-.09 1.65-.14 3.3-.14 5v56.74a4 4 0 0 1-.15 1.75 2.13 2.13 0 0 1-.5.11h-34.8a6.26 6.26 0 0 1-.16-.8v-1.48q.08-45.07.13-90.14c0-4.56-.07-9.12-.1-13.68v-1c1.15-.22 22.06-.31 34.37-.16.35 0 .69.05 1.09.08a20.16 20.16 0 0 1 .08 3V134c.47.12.51-.24.64-.42a50.84 50.84 0 0 1 3.94-5.09 33.32 33.32 0 0 1 20.05-11 48.61 48.61 0 0 1 13.36-.25 39.51 39.51 0 0 1 12.35 3.39 35.26 35.26 0 0 1 16.26 15.24 48.42 48.42 0 0 1 5.15 14.13 69.79 69.79 0 0 1 1.41 14.12v18.24Z" style="fill:#fff"/></svg>