<svg id="Layer_1" data-name="Layer 1" xmlns="http://www.w3.org/2000/svg" viewBox="0 0 300 300"><defs><style>.cls-1{fill:#fff}</style></defs><path class="cls-1" d="M287.44 144.24c-2-59-43.56-112.16-100.82-126.66-56.18-14.23-104 1.25-142.07 44.93-18.82 21.61-28.7 47.49-31.08 76.07a26.29 26.29 0 0 1-.47 2.6v17.16c.69 5 1.19 10.08 2.1 15.06 6.66 36.57 25.17 65.81 55.09 87.71a133 133 0 0 0 69.7 25.47 10.43 10.43 0 0 1 1.8.42h17.15c5.12-.7 10.27-1.17 15.34-2.13q61.63-11.75 94.21-65.41c13.99-23.05 19.97-48.32 19.05-75.22Zm-55.05 22.64c-1.69 1.09-2 2.06-1.88 4 1 11.85-3 22.15-10.56 31.11-10.65 12.62-24.6 20-40.31 24-26.35 6.76-52.09 5.09-76.68-7.12-12.27-6.09-22.39-14.68-28.46-27.33A37.12 37.12 0 0 1 70.81 170c.26-1.79-.65-2.3-1.85-3a20 20 0 0 1 5.63-36.69 19.38 19.38 0 0 1 16.27 3.33c.65.47 1.28 1 1.93 1.43a1.13 1.13 0 0 0 .37.09c12.2-8.65 26-13.5 40.75-15.63 3.71-.53 7.46-.82 11.2-1.06 1.61-.11 2.25-.65 2.59-2.3 2.94-14.33 6-28.64 9-42.95 1.15-5.46 2-6.05 7.47-4.9 9.53 2 19.05 4 28.54 6.07a2.5 2.5 0 0 0 3.29-1.32 13.82 13.82 0 0 1 17.23-5.14 14.25 14.25 0 0 1-5.39 27.36 14 14 0 0 1-14.09-11.2 3.21 3.21 0 0 0-3-3c-8.06-1.58-16.08-3.33-24.11-5-.87-.18-1.74-.33-3-.56-3 14.18-6.05 28.26-9.14 42.7 19.31 1.07 37.29 5.87 53.38 17a20.24 20.24 0 0 1 12.17-5.4c9.54-.59 17.86 4.85 20.76 13.62a20.33 20.33 0 0 1-8.42 23.43Z"/><path class="cls-1" d="M196 164.16a14.26 14.26 0 0 1-28.51-.11 14.26 14.26 0 1 1 28.51.11ZM133.09 164.06a14.26 14.26 0 0 1-14.38 14.2 14.25 14.25 0 0 1 .05-28.5 14.37 14.37 0 0 1 14.33 14.3ZM183.77 202.23a33 33 0 0 1-16.4 8c-5.57 1.12-11.27 1.64-14.11 2-12.21-.25-21.4-1.34-29.85-5.7a37 37 0 0 1-6.73-4.78 3.29 3.29 0 0 1-.28-5c1.42-1.66 3.31-2 5-.57 9.4 7.81 20.64 8.7 32.09 8.5a46.93 46.93 0 0 0 18.75-3.85 42.94 42.94 0 0 0 6.81-4.16c2.19-1.53 4.13-1.71 5.5-.16s1.1 3.98-.78 5.72Z"/></svg>